<svg width="16" height="16" viewBox="0 0 16 16" fill="none" xmlns="http://www.w3.org/2000/svg">
<g clip-path="url(#clip0_65_706)">
<path fill-rule="evenodd" clip-rule="evenodd" d="M1 0C0.447715 0 0 0.447715 0 1V15C0 15.5523 0.447715 16 1 16H15C15.5523 16 16 15.5523 16 15V1C16 0.447715 15.5523 0 15 0H1ZM5.5 2.5H2.5V5.5H5.5V2.5ZM6.5 2.5H9.5V5.5H6.5V2.5ZM13.5 2.5H10.5V5.5H13.5V2.5ZM10.5 6.5H13.5V9.5H10.5V6.5ZM9.5 6.5H6.5V9.5H9.5V6.5ZM2.5 6.5H5.5V9.5H2.5V6.5ZM5.5 10.5H2.5V13.5H5.5V10.5ZM6.5 10.5H9.5V13.5H6.5V10.5ZM13.5 10.5H10.5V13.5H13.5V10.5Z" fill="#262626"/>
</g>
<defs>
<clipPath id="clip0_65_706">
<rect width="16" height="16" fill="white"/>
</clipPath>
</defs>
</svg>
