<svg width="16" height="16" viewBox="0 0 16 16" fill="none" xmlns="http://www.w3.org/2000/svg">
<g clip-path="url(#clip0_65_632)">
<path d="M0.25 1C0.25 0.585786 0.585786 0.25 1 0.25H15C15.4142 0.25 15.75 0.585786 15.75 1V15C15.75 15.4142 15.4142 15.75 15 15.75H1C0.585786 15.75 0.25 15.4142 0.25 15V1Z" stroke="#262626" stroke-width="0.5"/>
<path d="M6.33333 13H3.5C3.22386 13 3 12.7761 3 12.5V9.66667M6.33333 13H9.66667M6.33333 13V9.66667M9.66667 13H12.5C12.7761 13 13 12.7761 13 12.5V9.66667M9.66667 13V9.66667M3 9.66667H6.33333M3 9.66667V6.33333M6.33333 9.66667V6.33333M6.33333 9.66667H9.66667M3 6.33333H6.33333M3 6.33333V3.5C3 3.22386 3.22386 3 3.5 3H6.33333M6.33333 6.33333H9.66667M6.33333 6.33333V3M9.66667 6.33333H13M9.66667 6.33333V3M9.66667 6.33333V9.66667M13 6.33333V3.5C13 3.22386 12.7761 3 12.5 3H9.66667M13 6.33333V9.66667M6.33333 3H9.66667M9.66667 9.66667H13" stroke="#262626" stroke-width="0.5"/>
</g>
<defs>
<clipPath id="clip0_65_632">
<rect width="16" height="16" fill="white"/>
</clipPath>
</defs>
</svg>
