<svg width="16" height="16" viewBox="0 0 16 16" fill="none" xmlns="http://www.w3.org/2000/svg">
<g clip-path="url(#clip0_65_745)">
<path fill-rule="evenodd" clip-rule="evenodd" d="M0 1C0 0.447715 0.447715 0 1 0H6V1.5C6 1.77614 6.22386 2 6.5 2H9.5C9.77614 2 10 1.77614 10 1.5V0H15C15.5523 0 16 0.447715 16 1V15C16 15.5523 15.5523 16 15 16H1C0.447715 16 0 15.5523 0 15V1ZM3 12.25C3 12.1119 3.11193 12 3.25 12H12.75C12.8881 12 13 12.1119 13 12.25V12.75C13 12.8881 12.8881 13 12.75 13H3.25C3.11193 13 3 12.8881 3 12.75V12.25ZM3.25 9C3.11193 9 3 9.11193 3 9.25V9.75C3 9.88807 3.11193 10 3.25 10H12.75C12.8881 10 13 9.88807 13 9.75V9.25C13 9.11193 12.8881 9 12.75 9H3.25ZM3 6.25C3 6.11193 3.11193 6 3.25 6H12.75C12.8881 6 13 6.11193 13 6.25V6.75C13 6.88807 12.8881 7 12.75 7H3.25C3.11193 7 3 6.88807 3 6.75V6.25ZM3.25 3C3.11193 3 3 3.11193 3 3.25V3.75C3 3.88807 3.11193 4 3.25 4H12.75C12.8881 4 13 3.88807 13 3.75V3.25C13 3.11193 12.8881 3 12.75 3H3.25Z" fill="#262626"/>
<path d="M7 0H9V0.5C9 0.776142 8.77614 1 8.5 1H7.5C7.22386 1 7 0.776142 7 0.5V0Z" fill="#262626"/>
</g>
<defs>
<clipPath id="clip0_65_745">
<rect width="16" height="16" fill="white"/>
</clipPath>
</defs>
</svg>
