<svg width="16" height="16" viewBox="0 0 16 16" fill="none" xmlns="http://www.w3.org/2000/svg">
<g clip-path="url(#clip0_65_741)">
<path fill-rule="evenodd" clip-rule="evenodd" d="M0 1C0 0.447715 0.447715 0 1 0H15C15.5523 0 16 0.447715 16 1V15C16 15.5523 15.5523 16 15 16H1C0.447715 16 0 15.5523 0 15V1ZM6.66685 2.91671C6.66685 2.77864 6.77878 2.66671 6.91685 2.66671H9.08352C9.22159 2.66671 9.33352 2.77864 9.33352 2.91671V5.08338C9.33352 5.22145 9.22159 5.33338 9.08352 5.33338H6.91685C6.77878 5.33338 6.66685 5.22145 6.66685 5.08338V2.91671ZM6.91685 6.66671C6.77878 6.66671 6.66685 6.77864 6.66685 6.91671V13.0834C6.66685 13.2215 6.77878 13.3334 6.91685 13.3334H9.08352C9.22159 13.3334 9.33352 13.2215 9.33352 13.0834V6.91671C9.33352 6.77864 9.22159 6.66671 9.08352 6.66671H6.91685Z" fill="#262626"/>
</g>
<defs>
<clipPath id="clip0_65_741">
<rect width="16" height="16" fill="white"/>
</clipPath>
</defs>
</svg>
