<svg width="24" height="24" viewBox="0 0 24 24" fill="none" xmlns="http://www.w3.org/2000/svg">
<g clip-path="url(#clip0_65_1822)">
<path fill-rule="evenodd" clip-rule="evenodd" d="M1 13.9742V1H18V6H19V0.5C19 0.223858 18.7761 0 18.5 0H0.5C0.223858 0 0 0.223859 0 0.500001V15.1533C0 15.5947 0.530263 15.8196 0.847582 15.5127L4 12.4642V11.3106C3.76982 11.3785 3.55722 11.5013 3.38169 11.671L1 13.9742Z" fill="#262626"/>
<path d="M4.5 6H23.5C23.7761 6 24 6.22386 24 6.5V22.7822C24 23.2292 23.4583 23.4516 23.1443 23.1336L19.7024 19.6486C19.6084 19.5535 19.4803 19.5 19.3466 19.5H4.5C4.22386 19.5 4 19.2761 4 19V6.5C4 6.22386 4.22386 6 4.5 6Z" fill="#262626"/>
</g>
<defs>
<clipPath id="clip0_65_1822">
<rect width="24" height="24" fill="white"/>
</clipPath>
</defs>
</svg>
