<svg width="24" height="24" viewBox="0 0 24 24" fill="none" xmlns="http://www.w3.org/2000/svg">
<g clip-path="url(#clip0_65_1807)">
<path d="M24 9.20711V23.5C24 23.7761 23.7761 24 23.5 24H15.5C15.2239 24 15 23.7761 15 23.5V15.5C15 15.2239 14.7761 15 14.5 15H9.5C9.22386 15 9 15.2239 9 15.5V23.5C9 23.7761 8.77614 24 8.5 24H0.5C0.223858 24 0 23.7761 0 23.5V9.20711C0 9.0745 0.0526783 8.94732 0.146446 8.85355L8.85355 0.146447C8.94732 0.0526784 9.0745 0 9.20711 0H14.7929C14.9255 0 15.0527 0.0526783 15.1464 0.146446L23.8536 8.85355C23.9473 8.94732 24 9.0745 24 9.20711Z" fill="#262626"/>
</g>
<defs>
<clipPath id="clip0_65_1807">
<rect width="24" height="24" fill="white"/>
</clipPath>
</defs>
</svg>
