<svg width="24" height="24" viewBox="0 0 24 24" fill="none" xmlns="http://www.w3.org/2000/svg">
<g clip-path="url(#clip0_65_1818)">
<path fill-rule="evenodd" clip-rule="evenodd" d="M0.0458464 12.2285L2.2485 23.2417C2.31965 23.5975 2.73416 23.7614 3.02941 23.5505L9.46977 18.9503C9.55457 18.8897 9.65617 18.8571 9.76039 18.8571H14.2399C14.3441 18.8571 14.4457 18.8897 14.5305 18.9503L20.9709 23.5505C21.2661 23.7614 21.6807 23.5975 21.7518 23.2417L23.9545 12.2285C23.9834 12.0836 23.9469 11.9334 23.8546 11.8181L19.3503 6.18765C19.2554 6.06904 19.1117 6 18.9598 6H5.04047C4.88857 6 4.74492 6.06905 4.65003 6.18765L0.145702 11.8181C0.0534323 11.9334 0.0168793 12.0836 0.0458464 12.2285ZM9.5 13C10.3284 13 11 12.3284 11 11.5C11 10.6716 10.3284 10 9.5 10C8.67157 10 8 10.6716 8 11.5C8 12.3284 8.67157 13 9.5 13ZM7 14.5C7 15.3284 6.32843 16 5.5 16C4.67157 16 4 15.3284 4 14.5C4 13.6716 4.67157 13 5.5 13C6.32843 13 7 13.6716 7 14.5ZM17.5 15C18.8807 15 20 13.8807 20 12.5C20 11.1193 18.8807 10 17.5 10C16.1193 10 15 11.1193 15 12.5C15 13.8807 16.1193 15 17.5 15Z" fill="#262626"/>
<path d="M12 6V0" stroke="#262626"/>
</g>
<defs>
<clipPath id="clip0_65_1818">
<rect width="24" height="24" fill="white"/>
</clipPath>
</defs>
</svg>
