<svg width="24" height="24" viewBox="0 0 24 24" fill="none" xmlns="http://www.w3.org/2000/svg">
<g clip-path="url(#clip0_65_1811)">
<path fill-rule="evenodd" clip-rule="evenodd" d="M9.8925 1.575C10.512 -0.525 13.488 -0.525 14.1075 1.575L14.2575 2.085C14.3501 2.39939 14.5118 2.68908 14.7309 2.93282C14.95 3.17656 15.2209 3.36817 15.5237 3.4936C15.8264 3.61902 16.1535 3.67509 16.4807 3.65768C16.808 3.64028 17.1272 3.54984 17.415 3.393L17.8815 3.1395C19.8045 2.091 21.909 4.1955 20.862 6.12L20.607 6.585C20.4502 6.87277 20.3597 7.192 20.3423 7.51927C20.3249 7.84654 20.381 8.17356 20.5064 8.47634C20.6318 8.77913 20.8234 9.05 21.0672 9.26909C21.3109 9.48818 21.6006 9.64994 21.915 9.7425L22.425 9.8925C24.525 10.512 24.525 13.488 22.425 14.1075L21.915 14.2575C21.6006 14.3501 21.3109 14.5118 21.0672 14.7309C20.8234 14.95 20.6318 15.2209 20.5064 15.5237C20.381 15.8264 20.3249 16.1535 20.3423 16.4807C20.3597 16.808 20.4502 17.1272 20.607 17.415L20.8605 17.8815C21.909 19.8045 19.8045 21.909 17.88 20.862L17.415 20.607C17.1272 20.4502 16.808 20.3597 16.4807 20.3423C16.1535 20.3249 15.8264 20.381 15.5237 20.5064C15.2209 20.6318 14.95 20.8234 14.7309 21.0672C14.5118 21.3109 14.3501 21.6006 14.2575 21.915L14.1075 22.425C13.488 24.525 10.512 24.525 9.8925 22.425L9.7425 21.915C9.64994 21.6006 9.48818 21.3109 9.26909 21.0672C9.05 20.8234 8.77913 20.6318 8.47634 20.5064C8.17356 20.381 7.84654 20.3249 7.51927 20.3423C7.192 20.3597 6.87277 20.4502 6.585 20.607L6.1185 20.8605C4.1955 21.909 2.091 19.8045 3.138 17.88L3.393 17.415C3.54984 17.1272 3.64028 16.808 3.65768 16.4807C3.67509 16.1535 3.61902 15.8264 3.4936 15.5237C3.36817 15.2209 3.17656 14.95 2.93282 14.7309C2.68908 14.5118 2.39939 14.3501 2.085 14.2575L1.575 14.1075C-0.525 13.488 -0.525 10.512 1.575 9.8925L2.085 9.7425C3.4275 9.3465 4.062 7.815 3.393 6.585L3.1395 6.1185C2.091 4.1955 4.1955 2.091 6.12 3.138L6.585 3.393C6.87277 3.54984 7.192 3.64028 7.51927 3.65768C7.84654 3.67509 8.17356 3.61902 8.47634 3.4936C8.77913 3.36817 9.05 3.17656 9.26909 2.93282C9.48818 2.68908 9.64994 2.39939 9.7425 2.085L9.8925 1.575ZM12 16C14.2091 16 16 14.2091 16 12C16 9.79086 14.2091 8 12 8C9.79086 8 8 9.79086 8 12C8 14.2091 9.79086 16 12 16Z" fill="#262626"/>
</g>
<defs>
<clipPath id="clip0_65_1811">
<rect width="24" height="24" fill="white"/>
</clipPath>
</defs>
</svg>
