<svg width="24" height="24" viewBox="0 0 24 24" fill="none" xmlns="http://www.w3.org/2000/svg">
<g clip-path="url(#clip0_65_1782)">
<path d="M9.78584 2.15581L9.78587 2.1557C10.4355 -0.050922 13.5649 -0.050922 14.2146 2.1557L14.2146 2.15581L14.3556 2.63425C14.3556 2.63427 14.3556 2.63429 14.3556 2.63431C14.4319 2.89328 14.5652 3.1319 14.7457 3.33268C14.9261 3.53347 15.1493 3.69133 15.3987 3.79468C15.6482 3.89803 15.9175 3.94425 16.1872 3.92996C16.4568 3.91566 16.7198 3.84122 16.9569 3.71208L17.3948 3.4736L17.3949 3.47354C19.4159 2.37243 21.6285 4.58315 20.5285 6.6047C20.5284 6.60492 20.5282 6.60515 20.5281 6.60538L20.2887 7.04221L20.2881 7.04332C20.159 7.28043 20.0845 7.54343 20.0703 7.81304C20.056 8.08266 20.1022 8.35206 20.2055 8.60149C20.3089 8.85092 20.4667 9.07406 20.6675 9.25455C20.8683 9.43505 21.107 9.56833 21.366 9.64461L21.8444 9.78559L21.8445 9.78563C24.0511 10.4353 24.0511 13.5647 21.8445 14.2143L21.8444 14.2144L21.366 14.3554C21.107 14.4316 20.8683 14.5649 20.6675 14.7454C20.4667 14.9259 20.3089 15.149 20.2055 15.3985C20.1022 15.6479 20.056 15.9173 20.0703 16.1869C20.0845 16.4565 20.159 16.7195 20.2881 16.9566L20.5266 17.3946L20.5268 17.3949C21.6287 19.4152 19.4176 21.6286 17.3954 20.5282C17.3952 20.5281 17.395 20.528 17.3948 20.5279L16.958 20.2885L16.9569 20.2879C16.7198 20.1587 16.4568 20.0843 16.1872 20.07C15.9176 20.0557 15.6482 20.1019 15.3987 20.2053C15.1493 20.3086 14.9262 20.4665 14.7457 20.6673C14.5652 20.8681 14.4319 21.1067 14.3556 21.3657L14.2146 21.8442L14.2146 21.8443C13.5649 24.0509 10.4355 24.0509 9.78587 21.8443L9.78584 21.8442L9.64485 21.3657C9.56857 21.1067 9.4353 20.8681 9.2548 20.6673C9.0743 20.4665 8.85116 20.3086 8.60173 20.2053C8.3523 20.1019 8.0829 20.0557 7.81329 20.07C7.54369 20.0843 7.28071 20.1587 7.04362 20.2879C7.0436 20.2879 7.04358 20.2879 7.04357 20.2879L6.60562 20.5264L6.60541 20.5265C4.58421 21.6283 2.37249 19.4179 3.47216 17.3949C3.47226 17.3947 3.47236 17.3946 3.47246 17.3944L3.71172 16.9578L3.71232 16.9566C3.84146 16.7195 3.91591 16.4565 3.9302 16.1869C3.9445 15.9173 3.89827 15.6479 3.79492 15.3985C3.69157 15.149 3.53372 14.9259 3.33292 14.7454C3.13214 14.5649 2.89353 14.4317 2.63456 14.3554C2.63454 14.3554 2.63452 14.3554 2.6345 14.3554L2.15606 14.2144L2.15594 14.2143C-0.0506779 13.5647 -0.0506779 10.4353 2.15594 9.78563L2.15605 9.78559L2.6345 9.64461C2.63452 9.6446 2.63454 9.6446 2.63455 9.64459C2.89352 9.56831 3.13214 9.43504 3.33292 9.25456C3.53372 9.07406 3.69157 8.85092 3.79492 8.60149C3.89827 8.35206 3.9445 8.08266 3.9302 7.81304C3.91591 7.54345 3.84147 7.28047 3.71235 7.04337C3.71234 7.04336 3.71233 7.04334 3.71232 7.04332L3.47385 6.60537L3.47379 6.60526C2.37301 4.58491 4.58289 2.37269 6.60516 3.47185C6.60538 3.47198 6.6056 3.4721 6.60583 3.47222L7.04246 3.71147L7.04357 3.71208C7.28067 3.84122 7.54367 3.91566 7.81329 3.92996C8.0829 3.94425 8.3523 3.89803 8.60173 3.79468C8.85116 3.69133 9.0743 3.53347 9.2548 3.33268C9.43528 3.1319 9.56855 2.89328 9.64484 2.63431C9.64484 2.63429 9.64485 2.63427 9.64485 2.63425L9.78584 2.15581Z" stroke="#262626"/>
<circle cx="12" cy="12" r="3.5" stroke="#262626"/>
</g>
<defs>
<clipPath id="clip0_65_1782">
<rect width="24" height="24" fill="white"/>
</clipPath>
</defs>
</svg>
