<svg width="24" height="24" viewBox="0 0 24 24" fill="none" xmlns="http://www.w3.org/2000/svg">
<g clip-path="url(#clip0_65_1820)">
<path d="M6.5 24H0.5C0.223858 24 0 23.7761 0 23.5V0.5C0 0.223858 0.223858 0 0.5 0H6.5C6.77614 0 7 0.223857 7 0.5V23.5C7 23.7761 6.77614 24 6.5 24Z" fill="#262626"/>
<path d="M15 24H9C8.72386 24 8.5 23.7761 8.5 23.5V8.5C8.5 8.22386 8.72386 8 9 8H15C15.2761 8 15.5 8.22386 15.5 8.5V23.5C15.5 23.7761 15.2761 24 15 24Z" fill="#262626"/>
<path d="M23.5 24H17.5C17.2239 24 17 23.7761 17 23.5V13.5C17 13.2239 17.2239 13 17.5 13H23.5C23.7761 13 24 13.2239 24 13.5V23.5C24 23.7761 23.7761 24 23.5 24Z" fill="#262626"/>
</g>
<defs>
<clipPath id="clip0_65_1820">
<rect width="24" height="24" fill="white"/>
</clipPath>
</defs>
</svg>
