<svg width="24" height="24" viewBox="0 0 24 24" fill="none" xmlns="http://www.w3.org/2000/svg">
<g clip-path="url(#clip0_65_1789)">
<path d="M6.5 23.625H0.5C0.430963 23.625 0.375 23.569 0.375 23.5V0.5C0.375 0.430965 0.430964 0.375 0.5 0.375H6.5C6.56904 0.375 6.625 0.430965 6.625 0.5V23.5C6.625 23.569 6.56904 23.625 6.5 23.625Z" stroke="#262626" stroke-width="0.75"/>
<path d="M15 23.625H9C8.93096 23.625 8.875 23.569 8.875 23.5V9.5C8.875 9.43096 8.93096 9.375 9 9.375H15C15.069 9.375 15.125 9.43096 15.125 9.5V23.5C15.125 23.569 15.069 23.625 15 23.625Z" stroke="#262626" stroke-width="0.75"/>
<path d="M23.5 23.625H17.5C17.431 23.625 17.375 23.569 17.375 23.5V14.5C17.375 14.431 17.431 14.375 17.5 14.375H23.5C23.569 14.375 23.625 14.431 23.625 14.5V23.5C23.625 23.569 23.569 23.625 23.5 23.625Z" stroke="#262626" stroke-width="0.75"/>
</g>
<defs>
<clipPath id="clip0_65_1789">
<rect width="24" height="24" fill="white"/>
</clipPath>
</defs>
</svg>
