<svg width="16" height="16" viewBox="0 0 16 16" fill="none" xmlns="http://www.w3.org/2000/svg">
<g clip-path="url(#clip0_65_737)">
<path fill-rule="evenodd" clip-rule="evenodd" d="M1 0C0.447715 0 0 0.447715 0 1V15C0 15.5523 0.447715 16 1 16H15C15.5523 16 16 15.5523 16 15V1C16 0.447715 15.5523 0 15 0H1ZM2.91685 2.66671C2.77878 2.66671 2.66685 2.77864 2.66685 2.91671V5.08338C2.66685 5.22145 2.77878 5.33338 2.91685 5.33338H5.08352C5.22159 5.33338 5.33352 5.22145 5.33352 5.08338V2.91671C5.33352 2.77864 5.22159 2.66671 5.08352 2.66671H2.91685ZM2.66685 6.91671C2.66685 6.77864 2.77878 6.66671 2.91685 6.66671H5.08352C5.22159 6.66671 5.33352 6.77864 5.33352 6.91671V9.08338C5.33352 9.22145 5.22159 9.33338 5.08352 9.33338H2.91685C2.77878 9.33338 2.66685 9.22145 2.66685 9.08338V6.91671ZM10.9169 2.66671C10.7788 2.66671 10.6669 2.77864 10.6669 2.91671V5.08338C10.6669 5.22145 10.7788 5.33338 10.9169 5.33338H13.0835C13.2216 5.33338 13.3335 5.22145 13.3335 5.08338V2.91671C13.3335 2.77864 13.2216 2.66671 13.0835 2.66671H10.9169ZM10.6669 6.91671C10.6669 6.77864 10.7788 6.66671 10.9169 6.66671H13.0835C13.2216 6.66671 13.3335 6.77864 13.3335 6.91671V9.08338C13.3335 9.22145 13.2216 9.33338 13.0835 9.33338H10.9169C10.7788 9.33338 10.6669 9.22145 10.6669 9.08338V6.91671ZM6.91685 2.66671C6.77878 2.66671 6.66685 2.77864 6.66685 2.91671V5.08338C6.66685 5.22145 6.77878 5.33338 6.91685 5.33338H9.08352C9.22159 5.33338 9.33352 5.22145 9.33352 5.08338V2.91671C9.33352 2.77864 9.22159 2.66671 9.08352 2.66671H6.91685ZM6.66685 10.9167C6.66685 10.7786 6.77878 10.6667 6.91685 10.6667H9.08352C9.22159 10.6667 9.33352 10.7786 9.33352 10.9167V13.0834C9.33352 13.2214 9.22159 13.3334 9.08352 13.3334H6.91685C6.77878 13.3334 6.66685 13.2215 6.66685 13.0834V10.9167ZM6.91685 6.66671C6.77878 6.66671 6.66685 6.77864 6.66685 6.91671V9.08338C6.66685 9.22145 6.77878 9.33338 6.91685 9.33338H9.08352C9.22159 9.33338 9.33352 9.22145 9.33352 9.08338V6.91671C9.33352 6.77864 9.22159 6.66671 9.08352 6.66671H6.91685Z" fill="#262626"/>
</g>
<defs>
<clipPath id="clip0_65_737">
<rect width="16" height="16" fill="white"/>
</clipPath>
</defs>
</svg>
