<svg width="16" height="16" viewBox="0 0 16 16" fill="none" xmlns="http://www.w3.org/2000/svg">
<g clip-path="url(#clip0_65_670)">
<path d="M0.25 1C0.25 0.585786 0.585786 0.25 1 0.25H15C15.4142 0.25 15.75 0.585786 15.75 1V15C15.75 15.4142 15.4142 15.75 15 15.75H1C0.585786 15.75 0.25 15.4142 0.25 15V1Z" stroke="#262626" stroke-width="0.5"/>
<path d="M5 2.5H3C2.72386 2.5 2.5 2.72386 2.5 3V5C2.5 5.27614 2.72386 5.5 3 5.5H5C5.27614 5.5 5.5 5.27614 5.5 5V3C5.5 2.72386 5.27614 2.5 5 2.5Z" fill="#262626"/>
<path d="M5 6.5H3C2.72386 6.5 2.5 6.72386 2.5 7V9C2.5 9.27614 2.72386 9.5 3 9.5H5C5.27614 9.5 5.5 9.27614 5.5 9V7C5.5 6.72386 5.27614 6.5 5 6.5Z" fill="#262626"/>
<path d="M9 2.5H7C6.72386 2.5 6.5 2.72386 6.5 3V5C6.5 5.27614 6.72386 5.5 7 5.5H9C9.27614 5.5 9.5 5.27614 9.5 5V3C9.5 2.72386 9.27614 2.5 9 2.5Z" fill="#262626"/>
<path d="M9 6.5H7C6.72386 6.5 6.5 6.72386 6.5 7V9C6.5 9.27614 6.72386 9.5 7 9.5H9C9.27614 9.5 9.5 9.27614 9.5 9V7C9.5 6.72386 9.27614 6.5 9 6.5Z" fill="#262626"/>
<path d="M9 10.5H7C6.72386 10.5 6.5 10.7239 6.5 11V13C6.5 13.2761 6.72386 13.5 7 13.5H9C9.27614 13.5 9.5 13.2761 9.5 13V11C9.5 10.7239 9.27614 10.5 9 10.5Z" fill="#262626"/>
<path d="M13 2.5H11C10.7239 2.5 10.5 2.72386 10.5 3V5C10.5 5.27614 10.7239 5.5 11 5.5H13C13.2761 5.5 13.5 5.27614 13.5 5V3C13.5 2.72386 13.2761 2.5 13 2.5Z" fill="#262626"/>
<path d="M13 6.5H11C10.7239 6.5 10.5 6.72386 10.5 7V9C10.5 9.27614 10.7239 9.5 11 9.5H13C13.2761 9.5 13.5 9.27614 13.5 9V7C13.5 6.72386 13.2761 6.5 13 6.5Z" fill="#262626"/>
</g>
<defs>
<clipPath id="clip0_65_670">
<rect width="16" height="16" fill="white"/>
</clipPath>
</defs>
</svg>
